<svg width="1200" height="1200" viewBox="0 0 1200 1200" fill="none" xmlns="http://www.w3.org/2000/svg">
  <g opacity="0.48" stroke="#554A68" stroke-width="1.4" stroke-linecap="round" stroke-linejoin="round">
    <path d="M604 204C500 281 445 385 451 519C459 704 584 820 735 867" opacity="0.22"/>
    <path d="M604 361C662 426 681 497 651 574C615 668 528 707 437 721C442 621 487 544 565 489C611 456 631 415 604 361Z" opacity="0.26"/>
    <path d="M646 394C719 421 766 477 789 561C827 703 752 816 634 885C604 759 619 651 681 559C713 511 708 459 646 394Z" opacity="0.2"/>
    <path d="M555 556C492 573 443 610 408 668C374 724 365 785 381 851C446 832 498 798 537 750C579 698 593 633 555 556Z" opacity="0.24"/>
    <path d="M739 321C790 321 831 362 831 413C831 464 790 505 739 505C707 505 679 489 663 464C678 474 696 480 715 480C766 480 807 439 807 388C807 369 801 351 790 336C776 327 758 321 739 321Z" opacity="0.16"/>
    <path d="M315 296H492" opacity="0.15"/>
    <path d="M727 928H913" opacity="0.15"/>
    <circle cx="613" cy="605" r="318" opacity="0.08"/>
  </g>
</svg>