<svg width="640" height="640" viewBox="0 0 640 640" fill="none" xmlns="http://www.w3.org/2000/svg">
  <path d="M330 42C251 91 211 166 217 262C224 381 300 456 397 493C377 404 387 329 428 268C456 226 449 161 390 98C426 113 455 136 475 166C507 215 510 273 483 324C454 381 396 415 328 425C269 434 210 421 163 389C181 324 214 274 265 239C314 205 344 144 330 42Z" fill="#2A2235"/>
  <path d="M256 344C199 357 155 389 124 439C104 472 96 509 100 552C156 541 203 515 240 474C276 433 286 390 256 344Z" fill="#5B4A78"/>
</svg>