<svg width="128" height="128" viewBox="0 0 128 128" fill="none" xmlns="http://www.w3.org/2000/svg">
  <circle cx="64" cy="64" r="62" fill="#554A68"/>
  <path d="M66 15C50 25 42 40 43 59C44 83 60 98 79 106C75 88 77 73 85 61C91 52 89 39 78 27C85 30 91 35 95 41C102 51 102 63 97 73C91 84 79 91 66 93C54 95 42 92 33 86C36 73 43 63 53 56C63 49 69 37 66 15Z" fill="#F8F5FA"/>
  <path d="M51 76C40 79 31 85 25 95C21 102 19 109 20 118C31 116 41 110 48 102C55 94 57 85 51 76Z" fill="#EDE8F1" opacity="0.9"/>
</svg>